<svg width="880" height="440" viewBox="0 0 880 440" fill="none" xmlns="http://www.w3.org/2000/svg">
<path d="M224.002 275.41C253.985 242.771 273.249 193.333 281.789 127.09H198.681C194.707 157.128 188.353 181.154 179.618 199.157C170.878 217.165 158.915 230.162 143.723 238.149C128.531 246.142 109.12 250.137 85.4876 250.137H80.7218V0H0V433.261H80.7245V324.368H100.385C117.152 324.368 132.765 322.692 147.238 319.351L206.43 433.261H302.049L215.016 284.391C218.115 281.548 221.114 278.557 224.004 275.41H224.002Z" fill="#F2F9FF"/>
<path d="M835.53 363.361V127.09H754.805V272.377C754.805 305.692 749.988 329.422 740.357 343.576C730.722 357.728 716.476 364.807 697.613 364.807C683.116 364.807 671.744 360.042 663.506 350.508C655.264 340.978 651.143 327.452 651.143 309.926V127.09H570.419V329.278C570.419 364.131 578.656 391.138 595.142 410.296C611.623 429.46 634.858 439.035 664.847 439.035C685.698 439.035 703.273 433.447 717.571 422.282C731.868 411.116 741.5 395.131 746.465 374.335H755.651L760.168 436.146L879.019 433.256V369.711L835.53 363.356V363.361Z" fill="#F2F9FF"/>
<path d="M393.927 129.408C393.927 117.004 395.475 107.79 398.571 101.785C401.67 95.781 407.551 92.7787 416.221 92.7787C424.891 92.7787 430.357 95.781 433.872 101.785C437.373 107.79 439.134 118.403 439.134 133.613H532.028V121.604C532.028 83.9789 523.252 55.455 505.707 36.0321C488.154 16.6197 458.333 6.9082 416.221 6.9082C339.43 6.9082 301.034 40.339 301.034 107.19C301.034 126.013 302.784 141.417 306.297 153.429C309.801 165.438 315.372 174.953 323.017 181.953C330.653 188.961 340.357 193.765 352.123 196.364C363.889 198.973 377.822 200.268 393.924 200.268V206.272C378.646 206.272 364.913 207.577 352.742 210.175C340.56 212.785 330.139 217.587 321.467 224.587C312.797 231.595 306.189 241.204 301.65 253.412C297.103 265.628 294.836 281.543 294.836 301.152V316.766C294.836 359.607 301.126 390.729 313.724 410.142C326.314 429.565 345.617 439.266 371.627 439.266C381.118 439.266 389.896 438.063 397.947 435.661C405.998 433.259 413.217 429.056 419.623 423.052C426.018 417.047 431.699 408.939 436.654 398.733C441.609 388.524 445.527 375.613 448.42 360H454.613L443.465 433.261H532.644V246.506H551.22V160.636H416.219C400.524 160.636 393.092 150.23 393.924 129.411L393.927 129.408ZM433.561 246.506V289.743C433.561 303.358 433.037 314.269 432.01 322.471C430.975 330.682 429.63 337.09 427.984 341.687C426.331 346.296 424.364 349.4 422.1 350.995C419.825 352.601 417.242 353.398 414.357 353.398C407.749 353.398 402.688 349.796 399.184 342.589C395.672 335.382 393.919 320.774 393.919 298.752C393.919 287.147 394.54 277.941 395.777 271.129C397.015 264.326 398.66 259.12 400.732 255.516C402.794 251.913 405.579 249.511 409.094 248.309C412.596 247.106 416.418 246.506 420.552 246.506H433.558H433.561Z" fill="#1DEA4C"/>
</svg>
