<svg width="58" height="32" viewBox="0 0 58 32" fill="none" xmlns="http://www.w3.org/2000/svg">
<path d="M15.8965 19.0461C17.6986 17.0929 18.8563 14.1345 19.3696 10.1704L14.3747 10.1704C14.1358 11.9679 13.7539 13.4057 13.229 14.483C12.7037 15.5606 11.9847 16.3384 11.0716 16.8163C10.1586 17.2946 8.99187 17.5337 7.57155 17.5337L7.28512 17.5337L7.28512 2.56519L2.43359 2.56519L2.43359 28.4921L7.28528 28.4921L7.28528 21.9758L8.4669 21.9758C9.47462 21.9758 10.413 21.8755 11.2829 21.6756L14.8404 28.4921L20.5873 28.4921L15.3564 19.5835C15.5427 19.4134 15.7229 19.2344 15.8967 19.0461L15.8965 19.0461Z" fill="#2322E3"/>
<path d="M52.6504 24.3092L52.6504 10.1704L47.7988 10.1704L47.7988 18.8645C47.7988 20.8582 47.5092 22.2782 46.9304 23.1252C46.3513 23.9721 45.4951 24.3957 44.3614 24.3957C43.4901 24.3957 42.8066 24.1105 42.3115 23.54C41.8161 22.9697 41.5685 22.1603 41.5685 21.1115L41.5685 10.1704L36.7168 10.1704L36.7168 22.2696C36.7168 24.3553 37.2119 25.9714 38.2027 27.1178C39.1932 28.2646 40.5897 28.8376 42.3921 28.8376C43.6453 28.8376 44.7016 28.5032 45.5609 27.8351C46.4202 27.1669 46.9991 26.2103 47.2975 24.9659L47.8496 24.9659L48.1211 28.6647L55.2642 28.4918L55.2642 24.6892L52.6504 24.3088L52.6504 24.3092Z" fill="#2322E3"/>
<path d="M26.1093 10.3091C26.1093 9.56677 26.2024 9.01541 26.3885 8.65609C26.5747 8.29677 26.9282 8.11712 27.4493 8.11712C27.9704 8.11712 28.2988 8.29677 28.5101 8.65609C28.7205 9.01541 28.8264 9.65048 28.8264 10.5607L34.4094 10.5607L34.4094 9.84205C34.4094 7.59053 33.882 5.88362 32.8276 4.72133C31.7726 3.55966 29.9803 2.97852 27.4493 2.97852C22.834 2.97852 20.5263 4.97905 20.5263 8.97951C20.5263 10.1059 20.6315 11.0277 20.8426 11.7465C21.0532 12.4651 21.388 13.0345 21.8476 13.4534C22.3065 13.8728 22.8897 14.1603 23.5969 14.3158C24.304 14.4719 25.1414 14.5494 26.1092 14.5494L26.1092 14.9087C25.1909 14.9087 24.3656 14.9868 23.6341 15.1423C22.9019 15.2984 22.2756 15.5858 21.7544 16.0047C21.2333 16.424 20.8361 16.9991 20.5633 17.7296C20.29 18.4606 20.1538 19.413 20.1538 20.5864L20.1538 21.5208C20.1538 24.0844 20.5318 25.9469 21.289 27.1085C22.0457 28.2708 23.2059 28.8513 24.7691 28.8513C25.3395 28.8513 25.8671 28.7794 26.351 28.6356C26.8348 28.4919 27.2687 28.2404 27.6537 27.8811C28.0381 27.5218 28.3795 27.0366 28.6773 26.4258C28.9751 25.8149 29.2106 25.0423 29.3845 24.1079L29.7567 24.1079L29.0867 28.492L34.4465 28.492L34.4465 17.3164L35.563 17.3164L35.563 12.1778L27.4491 12.1778C26.5059 12.1778 26.0592 11.5551 26.1092 10.3092L26.1093 10.3091ZM28.4914 17.3164L28.4914 19.9037C28.4914 20.7184 28.4599 21.3714 28.3982 21.8622C28.336 22.3535 28.2552 22.737 28.1563 23.0121C28.0569 23.2879 27.9387 23.4737 27.8026 23.5691C27.6659 23.6652 27.5107 23.7129 27.3372 23.7129C26.9401 23.7129 26.6359 23.4973 26.4253 23.0661C26.2142 22.6348 26.1089 21.7606 26.1089 20.4428C26.1089 19.7483 26.1462 19.1974 26.2206 18.7898C26.2949 18.3827 26.3938 18.0712 26.5184 17.8555C26.6423 17.6399 26.8097 17.4962 27.0209 17.4242C27.2314 17.3523 27.4611 17.3164 27.7096 17.3164L28.4913 17.3164L28.4914 17.3164Z" fill="#9A67FF"/>
</svg>
